<svg xmlns="http://www.w3.org/2000/svg" xmlns:xlink="http://www.w3.org/1999/xlink" style="margin:auto;background:transparent;display:block;z-index:1;position:relative" width="1920" height="1010" preserveAspectRatio="xMidYMid" viewBox="0 0 1920 1010">
    <g transform="translate(960,505) scale(1,1) translate(-960,-505)"><g transform="translate(1490.984168316464,93.12645994519988) scale(100)" opacity="0.9">
        <path d="M6.5184 0 C6.5184 1.5455999999999999 6.767081434834371 2.122271135910771 5.994281434834371 3.4607999999999994 S4.597728864089229 4.872299992028484 3.2592000000000008 5.645099992028484 S1.5456000000000003 6.9216 4.2382576424891597e-16 6.9216 S-1.9206711359107702 6.4178999920284845 -3.2591999999999985 5.645099992028485 S-5.221481434834369 4.79932886408923 -5.994281434834369 3.460800000000002 S-6.5184 1.5456000000000008 -6.5184 7.982737695562107e-16 S-6.76708143483437 -2.1222711359107693 -5.994281434834371 -3.460799999999998 S-4.597728864089231 -4.872299992028482 -3.259200000000003 -5.6450999920284834 S-1.5456000000000012 -6.9216 -1.2714772927467478e-15 -6.9216 S1.9206711359107667 -6.417899992028486 3.2591999999999954 -5.645099992028487 S5.221481434834368 -4.799328864089231 5.9942814348343685 -3.460800000000003 S6.5184 -1.5456000000000014 6.5184 -1.5965475391124214e-15" fill="#ffa17a" stroke-width="0">
            <animateTransform attributeName="transform" type="rotate" dur="10s" repeatCount="indefinite" values="0;60"></animateTransform>
        </path>
    </g><g transform="translate(1597.1810019797567,10.751751934239849) scale(100)" opacity="0.9">
        <path d="M7.82208 0 C7.82208 1.85472 8.120497721801245 2.546725363092925 7.1931377218012456 4.152959999999999 S5.517274636907075 5.846759990434181 3.9110400000000007 6.774119990434182 S1.8547200000000004 8.30592 5.085909170986992e-16 8.30592 S-2.3048053630929237 7.701479990434182 -3.911039999999998 6.7741199904341824 S-6.265777721801243 5.759194636907076 -7.193137721801244 4.152960000000003 S-7.82208 1.8547200000000008 -7.82208 9.579285234674527e-16 S-8.120497721801247 -2.546725363092923 -7.193137721801246 -4.1529599999999975 S-5.517274636907077 -5.84675999043418 -3.9110400000000034 -6.774119990434181 S-1.8547200000000015 -8.30592 -1.5257727512960975e-15 -8.30592 S2.3048053630929197 -7.7014799904341835 3.9110399999999945 -6.774119990434185 S6.265777721801242 -5.759194636907077 7.193137721801243 -4.152960000000004 S7.822079999999999 -1.854720000000002 7.82208 -1.9158570469349055e-15" fill="#ffa17a" stroke-width="0">
            <animateTransform attributeName="transform" type="rotate" dur="5s" repeatCount="indefinite" values="0;60"></animateTransform>
        </path>
    </g></g>
</svg>