<?xml version="1.0" standalone="no"?>
<!DOCTYPE svg PUBLIC "-//W3C//DTD SVG 20010904//EN"
 "http://www.w3.org/TR/2001/REC-SVG-20010904/DTD/svg10.dtd">
<svg version="1.0" xmlns="http://www.w3.org/2000/svg"
 width="96.000000pt" height="68.000000pt" viewBox="0 0 96.000000 68.000000"
 preserveAspectRatio="xMidYMid meet">

<g transform="translate(0.000000,68.000000) scale(0.100000,-0.100000)"
fill="#FFA17A" stroke="none">
<path d="M0 645 l0 -34 25 25 c35 35 97 31 143 -10 35 -32 41 -60 17 -86 -16
-18 -13 -81 5 -111 15 -23 48 18 56 67 10 66 56 83 119 44 39 -24 65 -83 67
-147 0 -25 7 -51 16 -59 22 -22 80 -9 117 27 18 16 42 29 56 29 25 0 114 -56
120 -75 4 -13 130 -112 166 -130 17 -9 32 -28 39 -52 10 -31 12 15 13 255 l1
292 -480 0 -480 0 0 -35z"/>
<path d="M62 587 c-16 -18 -20 -146 -6 -155 6 -4 15 -17 18 -30 4 -12 25 -42
45 -66 l38 -44 29 19 c41 27 74 24 117 -12 31 -26 37 -37 37 -70 0 -34 3 -39
23 -37 28 2 187 -51 187 -62 0 -5 13 -8 28 -8 16 1 53 -10 83 -24 70 -33 114
-45 167 -47 47 -2 72 11 72 39 0 26 -30 80 -45 80 -15 0 -114 75 -133 102 -7
10 -18 18 -23 18 -6 0 -25 11 -43 25 l-32 25 -33 -34 c-25 -26 -41 -33 -73
-34 -23 -1 -52 5 -65 13 -13 9 -23 12 -23 9 0 -4 -9 1 -20 11 -18 17 -38 86
-31 109 1 6 -2 19 -7 30 -6 12 -13 29 -16 39 -3 9 -9 16 -13 16 -4 -1 -16 1
-26 6 -23 10 -25 7 -28 -41 -2 -36 -8 -45 -53 -78 -27 -20 -56 -35 -65 -34
-35 7 -72 199 -42 217 7 5 10 14 7 20 -10 15 -61 14 -74 -2z"/>
<path d="M0 215 l0 -215 403 1 c221 1 393 3 382 6 -11 2 -29 8 -40 12 -11 5
-50 17 -88 26 -37 10 -84 26 -104 36 -21 11 -46 19 -58 19 -11 0 -44 11 -73
25 -30 14 -62 25 -73 25 -31 0 -59 31 -59 65 0 20 -9 40 -23 53 -23 22 -57 30
-57 14 0 -5 -11 -14 -25 -20 -45 -21 -95 4 -132 68 -18 30 -33 64 -33 77 0 13
-4 23 -10 23 -6 0 -10 -78 -10 -215z"/>
<path d="M950 50 c0 -5 -9 -19 -20 -30 l-20 -20 25 0 c21 0 25 5 25 30 0 17
-2 30 -5 30 -3 0 -5 -4 -5 -10z"/>
</g>
</svg>
