<?xml version="1.0" standalone="no"?>
<!DOCTYPE svg PUBLIC "-//W3C//DTD SVG 20010904//EN"
 "http://www.w3.org/TR/2001/REC-SVG-20010904/DTD/svg10.dtd">
<svg version="1.0" xmlns="http://www.w3.org/2000/svg"
 width="102.000000pt" height="54.000000pt" viewBox="0 0 102.000000 54.000000"
 preserveAspectRatio="xMidYMid meet">

<g transform="translate(0.000000,54.000000) scale(0.100000,-0.100000)"
fill="#FFA17A" stroke="none">
<path d="M0 505 c0 -19 5 -35 10 -35 6 0 10 9 10 20 0 38 71 53 120 25 14 -8
21 -15 15 -15 -5 0 -3 -6 6 -13 9 -7 27 -32 39 -57 l24 -45 7 33 c8 40 36 73
55 65 8 -3 14 0 14 6 0 7 15 18 33 26 40 17 644 20 664 4 6 -6 9 -18 6 -26 -4
-11 -2 -14 5 -9 7 4 12 18 12 32 l0 24 -510 0 -510 0 0 -35z"/>
<path d="M382 469 c-22 -10 -43 -15 -45 -12 -12 11 -49 -41 -54 -75 -5 -35
-37 -82 -55 -82 -21 0 -102 117 -103 149 0 15 -30 23 -57 15 -27 -8 -22 -42
10 -72 40 -39 102 -127 102 -146 0 -9 5 -16 10 -16 20 0 71 -94 67 -123 -2
-17 1 -26 7 -24 17 5 58 89 53 107 -7 28 12 143 28 167 9 13 22 23 31 23 8 0
22 7 30 15 9 8 25 15 37 15 27 0 139 -55 130 -64 -4 -3 8 -3 25 0 39 8 40 6
45 -120 3 -81 8 -102 22 -112 26 -19 55 -1 55 36 0 16 4 40 10 54 5 14 6 26 1
26 -8 0 -4 53 6 80 3 8 7 21 9 28 9 43 81 100 130 102 60 2 70 6 72 24 1 15
-5 17 -29 14 -16 -3 -29 -2 -29 1 0 4 -45 6 -100 6 -55 0 -100 -3 -100 -8 0
-4 -5 -5 -10 -2 -6 4 -66 8 -134 9 -98 2 -132 -2 -164 -15z"/>
<path d="M961 464 c0 -11 3 -14 6 -6 3 7 2 16 -1 19 -3 4 -6 -2 -5 -13z"/>
<path d="M999 427 c-16 -21 -32 -26 -85 -27 -12 0 -27 -7 -34 -15 -7 -8 -18
-15 -25 -15 -8 0 -27 -16 -44 -36 -27 -33 -30 -44 -30 -111 0 -87 -9 -139 -25
-152 -6 -5 -28 -12 -49 -16 -34 -7 -40 -4 -78 35 -35 35 -40 47 -36 73 3 18 2
54 -1 81 -7 49 -7 49 -60 66 -29 10 -61 25 -71 34 -25 23 -33 20 -57 -17 -14
-21 -24 -56 -28 -102 -4 -38 -11 -74 -15 -80 -5 -5 -11 -23 -15 -39 -4 -17
-17 -43 -28 -59 -18 -25 -25 -28 -60 -24 -50 6 -64 25 -59 78 1 9 -10 38 -24
64 -14 26 -25 44 -25 40 0 -13 -104 139 -105 152 0 7 -4 12 -8 10 -5 -1 -15 9
-22 23 -13 22 -14 0 -15 -182 l0 -208 510 0 510 0 0 225 c0 124 -1 225 -2 225
-2 0 -10 -11 -19 -23z"/>
</g>
</svg>
