<?xml version="1.0" standalone="no"?>
<!DOCTYPE svg PUBLIC "-//W3C//DTD SVG 20010904//EN"
 "http://www.w3.org/TR/2001/REC-SVG-20010904/DTD/svg10.dtd">
<svg version="1.0" xmlns="http://www.w3.org/2000/svg"
 width="96.000000pt" height="95.000000pt" viewBox="0 0 96.000000 95.000000"
 preserveAspectRatio="xMidYMid meet">

<g transform="translate(0.000000,95.000000) scale(0.100000,-0.100000)"
fill="#FFA17A" stroke="none">
<path d="M0 475 l0 -475 480 0 480 0 0 475 0 475 -480 0 -480 0 0 -475z m891
420 c51 -52 62 -83 50 -138 -15 -63 -37 -80 -97 -74 -50 5 -52 4 -66 -26 -9
-18 -31 -52 -49 -77 -19 -25 -34 -48 -34 -51 0 -3 -16 -28 -35 -57 -25 -36
-50 -58 -87 -76 -50 -25 -51 -26 -56 -78 -14 -141 -14 -142 -178 -146 l-127
-4 -6 -31 c-15 -80 -83 -131 -125 -93 -10 9 -22 16 -27 16 -5 0 -17 20 -28 45
-30 74 -16 114 73 202 35 35 138 93 166 93 8 0 15 4 15 9 0 5 21 12 46 16 59
8 75 15 68 26 -3 5 1 9 9 9 20 0 28 23 33 105 3 39 12 81 21 95 25 39 183 190
198 190 8 0 18 7 23 16 17 30 96 74 133 74 30 0 44 -8 80 -45z"/>
<path d="M755 861 c-22 -17 -43 -31 -47 -31 -4 0 -38 -29 -75 -65 -38 -36 -74
-65 -80 -65 -7 0 -13 -6 -13 -14 0 -8 -11 -27 -24 -43 -20 -24 -25 -42 -28
-100 -2 -39 -7 -69 -11 -66 -5 3 -8 -1 -6 -8 1 -8 1 -19 0 -26 -1 -17 -53 -51
-84 -57 -53 -9 -73 -17 -169 -64 -54 -26 -97 -51 -98 -56 0 -5 -13 -31 -30
-57 -24 -39 -28 -54 -20 -73 5 -13 6 -26 4 -29 -9 -9 35 -29 47 -22 5 4 21 32
35 63 14 31 30 59 36 63 6 4 65 8 131 8 66 1 124 4 129 7 4 3 8 33 8 67 0 77
15 107 63 131 46 22 136 133 187 228 20 37 44 77 53 88 9 11 17 26 17 33 0 8
11 24 25 37 34 32 53 15 38 -34 -12 -38 -9 -46 19 -46 15 0 18 8 18 53 -1 95
-56 130 -125 78z"/>
</g>
</svg>
