<?xml version="1.0" standalone="no"?>
<!DOCTYPE svg PUBLIC "-//W3C//DTD SVG 20010904//EN"
 "http://www.w3.org/TR/2001/REC-SVG-20010904/DTD/svg10.dtd">
<svg version="1.0" xmlns="http://www.w3.org/2000/svg"
 width="562.000000pt" height="243.000000pt" viewBox="0 0 562.000000 243.000000"
 preserveAspectRatio="xMidYMid meet">

<g transform="translate(0.000000,243.000000) scale(0.100000,-0.100000)"
fill="#FFA17A" stroke="none">
<path d="M0 1215 l0 -1215 2810 0 2810 0 0 1215 0 1215 -2810 0 -2810 0 0
-1215z m1291 1179 c175 -37 179 -38 334 -74 77 -18 151 -34 165 -37 14 -2 41
-8 60 -13 19 -5 96 -23 170 -40 176 -40 307 -71 515 -120 22 -5 79 -18 128
-30 48 -11 126 -29 175 -40 48 -12 105 -25 127 -30 22 -5 101 -23 175 -40 74
-17 151 -35 170 -40 289 -75 448 -99 1125 -170 113 -12 201 -23 390 -50 164
-24 252 -36 360 -50 261 -34 334 -72 369 -191 14 -45 14 -57 1 -107 -32 -123
-106 -182 -230 -182 -39 0 -96 4 -126 10 -50 9 -197 29 -359 50 -36 5 -130 18
-210 30 -146 22 -225 33 -355 50 -38 5 -99 14 -135 19 -36 5 -114 16 -175 25
-60 9 -137 20 -170 25 -33 5 -100 15 -150 21 -49 7 -130 18 -180 26 -49 8
-126 19 -170 25 -44 6 -109 15 -145 20 -36 5 -99 14 -140 19 -41 5 -104 13
-140 19 -238 34 -357 51 -615 86 -22 3 -87 12 -145 20 -58 8 -141 20 -185 26
-170 24 -271 0 -393 -94 -31 -25 -211 -197 -400 -383 l-343 -339 1 -50 c0 -50
16 -86 50 -112 29 -23 224 -106 279 -119 70 -16 177 2 251 42 73 40 66 30 208
304 47 91 98 183 114 206 71 99 222 174 353 174 28 0 106 -7 175 -15 189 -23
297 -36 380 -45 65 -7 254 -31 560 -70 248 -32 312 -80 340 -255 10 -64 35
-203 59 -330 26 -139 31 -177 31 -239 0 -82 -21 -128 -84 -183 -51 -45 -126
-73 -195 -73 -85 0 -120 17 -206 99 -228 220 -372 274 -576 216 -57 -16 -114
-45 -252 -128 -164 -99 -198 -107 -477 -118 -497 -19 -1038 -56 -1565 -109
-119 -12 -162 -3 -199 41 -30 35 -32 55 -12 120 17 54 23 69 203 449 23 47 57
119 76 160 19 41 61 129 92 195 31 66 72 152 90 190 18 39 61 129 95 200 34
72 76 159 92 195 17 36 59 124 93 195 313 654 282 596 335 623 24 12 49 22 56
22 6 0 67 -12 135 -26z"/>
<path d="M1128 2328 c-15 -11 -109 -198 -260 -518 -22 -47 -68 -141 -101 -210
-70 -147 -117 -246 -279 -590 -183 -387 -201 -426 -258 -545 -140 -294 -149
-318 -133 -343 13 -21 87 -22 298 -4 355 30 498 42 600 52 131 12 141 13 640
35 387 17 391 18 467 47 42 16 111 51 153 79 111 72 186 107 278 131 96 24
210 21 297 -7 78 -26 202 -110 298 -205 113 -111 158 -128 253 -95 51 18 75
37 108 83 21 30 22 40 18 125 -3 51 -10 117 -16 147 -5 30 -14 82 -19 115 -6
33 -16 83 -21 110 -6 28 -14 64 -16 80 -41 226 -43 228 -315 264 -41 6 -111
15 -155 21 -104 14 -218 28 -330 40 -92 10 -174 20 -325 39 -277 36 -323 34
-425 -13 -102 -46 -123 -74 -256 -336 -93 -184 -133 -244 -185 -279 -114 -75
-288 -97 -409 -51 -116 44 -230 102 -263 133 -64 61 -80 150 -42 231 15 31
114 134 349 364 181 177 353 342 382 367 70 60 138 98 223 125 73 24 131 24
281 0 108 -17 193 -28 435 -59 88 -11 569 -79 650 -91 88 -14 396 -58 495 -71
176 -23 215 -28 350 -49 77 -12 174 -26 215 -31 102 -13 174 -23 380 -53 179
-26 272 -39 395 -57 39 -5 151 -21 250 -35 199 -28 249 -26 294 12 36 30 65
111 56 154 -7 33 -46 85 -76 100 -22 12 -96 27 -199 41 -105 14 -188 25 -310
43 -107 16 -192 27 -348 46 -48 6 -121 15 -162 20 -41 5 -120 14 -175 20 -55
6 -136 15 -180 20 -44 5 -125 14 -180 20 -173 19 -267 37 -660 130 -44 10
-105 24 -135 31 -30 6 -65 15 -78 20 -13 5 -34 9 -47 9 -13 0 -34 4 -47 9 -13
5 -45 14 -73 20 -63 13 -199 45 -335 77 -95 23 -142 34 -280 65 -25 6 -61 14
-80 20 -34 9 -123 29 -342 79 -24 5 -72 16 -108 24 -36 9 -105 24 -155 35 -49
11 -133 30 -185 41 -131 30 -181 34 -202 18z"/>
</g>
</svg>
