<?xml version="1.0" standalone="no"?>
<!DOCTYPE svg PUBLIC "-//W3C//DTD SVG 20010904//EN"
 "http://www.w3.org/TR/2001/REC-SVG-20010904/DTD/svg10.dtd">
<svg version="1.0" xmlns="http://www.w3.org/2000/svg"
 width="96.000000pt" height="56.000000pt" viewBox="0 0 96.000000 56.000000"
 preserveAspectRatio="xMidYMid meet">

<g transform="translate(0.000000,56.000000) scale(0.100000,-0.100000)"
fill="#FFA17A" stroke="none">
<path d="M52 550 c32 -4 68 -14 80 -22 13 -8 35 -18 51 -22 25 -6 27 -10 29
-64 3 -114 7 -132 32 -132 16 0 33 36 35 75 2 42 13 49 84 51 59 3 65 0 117
-38 30 -23 59 -48 63 -55 4 -7 12 -13 17 -13 12 0 133 -82 143 -97 4 -7 14
-13 22 -13 7 0 39 -15 72 -34 32 -18 74 -42 93 -52 19 -10 40 -25 48 -32 7 -6
15 -12 18 -12 2 0 4 106 4 235 l0 235 -482 -1 c-266 -1 -457 -5 -426 -9z"/>
<path d="M53 441 c3 -31 12 -94 21 -141 23 -126 24 -133 26 -155 1 -15 7 -9
22 20 11 22 23 42 25 45 3 3 62 6 133 6 77 1 142 7 164 15 44 16 64 7 86 -39
13 -26 22 -32 64 -39 45 -7 50 -11 51 -36 1 -15 4 -29 6 -30 36 -28 71 -47 78
-43 4 3 33 6 62 7 30 1 64 6 77 10 21 8 22 11 8 24 -8 8 -20 15 -26 15 -17 0
-160 82 -160 92 0 4 -6 8 -13 8 -12 0 -81 46 -202 134 -65 48 -75 46 -75 -15
0 -22 -6 -39 -14 -42 -22 -9 -56 22 -57 51 -1 26 -1 26 -10 -5 -10 -34 -42
-63 -70 -63 -9 0 -32 12 -51 28 -33 26 -35 30 -37 97 -3 77 -16 95 -80 106
l-33 6 5 -56z"/>
<path d="M0 207 l0 -207 340 0 340 0 -46 44 c-25 25 -43 49 -39 56 4 7 -7 10
-37 8 -40 -3 -44 -1 -60 32 -18 34 -20 35 -77 35 -33 0 -57 -4 -54 -8 3 -4
-38 -6 -90 -3 l-95 5 -19 -47 c-17 -39 -25 -48 -48 -50 -32 -2 -66 23 -58 44
3 8 1 20 -5 27 -11 13 -31 133 -36 210 -1 26 -5 50 -9 54 -4 3 -7 -87 -7 -200z"/>
<path d="M943 29 c-7 -7 -29 -15 -50 -19 -37 -8 -37 -8 15 -9 46 -1 52 1 52
19 0 23 -2 24 -17 9z"/>
</g>
</svg>
