<?xml version="1.0" standalone="no"?>
<!DOCTYPE svg PUBLIC "-//W3C//DTD SVG 20010904//EN"
 "http://www.w3.org/TR/2001/REC-SVG-20010904/DTD/svg10.dtd">
<svg version="1.0" xmlns="http://www.w3.org/2000/svg"
 width="92.000000pt" height="95.000000pt" viewBox="0 0 92.000000 95.000000"
 preserveAspectRatio="xMidYMid meet">

<g transform="translate(0.000000,95.000000) scale(0.100000,-0.100000)"
fill="#FFA17A" stroke="none">
<path d="M0 613 c0 -239 3 -334 11 -326 6 6 11 17 12 24 2 8 6 20 10 27 5 6 6
12 2 12 -3 0 10 31 29 69 46 91 57 96 256 105 l84 4 3 44 c2 33 9 49 33 71 34
30 67 34 109 12 16 -8 31 -11 35 -8 3 4 6 1 6 -6 0 -7 4 -10 9 -7 5 3 12 -1
15 -10 4 -9 9 -14 13 -10 3 3 15 -2 25 -11 22 -20 24 -30 -18 141 -29 120 -30
150 -4 176 23 23 82 27 99 6 16 -19 50 -123 43 -131 -4 -3 -1 -9 5 -13 7 -4
14 -24 17 -45 2 -20 14 -62 25 -93 12 -30 19 -59 16 -64 -3 -5 -2 -10 3 -12 4
-1 20 -50 35 -108 16 -58 32 -118 37 -135 5 -18 8 102 9 298 l1 327 -460 0
-460 0 0 -337z"/>
<path d="M661 879 c-5 -13 -5 -25 0 -27 4 -2 5 -10 2 -18 -3 -8 0 -20 6 -28 6
-7 14 -35 17 -62 4 -27 10 -53 14 -59 12 -16 30 -123 23 -141 -8 -21 -57 -10
-109 25 -23 16 -58 34 -78 41 -32 10 -40 10 -56 -5 -11 -10 -23 -33 -26 -53
-12 -62 -27 -69 -170 -77 -125 -7 -129 -8 -156 -37 -16 -17 -29 -36 -29 -44
-3 -30 -19 -77 -29 -84 -4 -3 -10 -23 -11 -45 -4 -35 -2 -40 16 -37 11 1 32 3
48 3 15 0 27 4 27 9 0 8 67 25 87 21 7 -1 13 3 13 9 0 6 5 8 10 5 6 -4 17 -2
25 5 7 6 24 12 37 14 13 1 35 8 50 14 14 6 54 17 88 24 61 12 62 12 81 -12 10
-14 23 -30 29 -37 16 -19 12 -51 -9 -62 -10 -6 -38 -13 -62 -16 -24 -3 -51 -7
-59 -10 -19 -6 -290 -47 -310 -48 -26 0 -70 -37 -70 -59 0 -12 3 -19 6 -15 4
3 12 0 20 -7 13 -14 138 -14 319 -1 44 3 112 7 150 8 l70 2 3 34 c2 19 15 49
28 67 26 34 34 36 157 50 l59 7 -5 46 c-7 60 -12 81 -37 147 -11 30 -20 64
-20 75 0 10 -4 27 -10 37 -5 9 -21 60 -35 112 -60 225 -85 279 -104 229z"/>
<path d="M430 275 c-25 -7 -63 -20 -85 -28 l-40 -15 55 1 c30 1 58 5 61 10 3
4 28 9 56 10 45 2 50 4 42 20 -11 19 -26 20 -89 2z"/>
<path d="M0 105 l0 -105 48 1 c26 1 36 4 24 6 -41 8 -67 100 -41 142 10 15 8
22 -10 40 l-21 21 0 -105z"/>
<path d="M902 195 c-8 -9 -33 -15 -65 -16 -118 -2 -128 -4 -147 -29 -10 -13
-18 -39 -18 -58 0 -19 -4 -38 -10 -44 -13 -13 -116 -25 -287 -33 -82 -4 -152
-8 -154 -11 -2 -2 154 -4 347 -4 l352 0 0 105 c0 58 -1 105 -2 105 -2 -1 -9
-7 -16 -15z"/>
</g>
</svg>
