<?xml version="1.0" standalone="no"?>
<!DOCTYPE svg PUBLIC "-//W3C//DTD SVG 20010904//EN"
 "http://www.w3.org/TR/2001/REC-SVG-20010904/DTD/svg10.dtd">
<svg version="1.0" xmlns="http://www.w3.org/2000/svg"
 width="566.000000pt" height="225.000000pt" viewBox="0 0 566.000000 225.000000"
 preserveAspectRatio="xMidYMid meet">

<g transform="translate(0.000000,225.000000) scale(0.100000,-0.100000)"
fill="#FFA17A" stroke="none">
<path d="M0 1125 l0 -1125 91 0 c57 0 88 4 84 10 -3 6 -11 10 -16 10 -5 0 -28
12 -51 27 -29 20 -48 43 -65 81 -39 89 -29 170 36 292 47 87 83 150 94 164 8
10 28 41 59 91 7 11 15 22 18 25 3 3 25 30 49 60 90 112 227 234 329 292 102
59 248 125 332 149 25 7 50 16 55 20 20 13 153 23 315 21 193 -1 264 -6 293
-20 12 -5 56 -20 97 -33 41 -13 101 -36 133 -51 31 -16 59 -28 62 -28 5 0 104
-63 148 -95 16 -11 76 -59 135 -107 105 -87 125 -97 160 -79 26 13 105 53 122
62 38 20 449 218 483 233 62 27 111 48 132 56 11 5 34 14 52 21 17 7 30 16 28
19 -2 3 7 7 19 8 13 1 52 16 87 33 35 17 73 35 84 39 11 4 49 21 84 39 35 17
69 31 75 31 6 0 22 9 36 20 14 11 35 20 48 20 12 0 22 5 22 10 0 6 9 10 20 10
11 0 20 5 20 10 0 6 9 10 20 10 11 0 20 4 20 9 0 5 10 11 22 13 29 4 68 62 68
100 0 47 -29 88 -62 88 -15 0 -28 5 -28 11 0 7 -41 9 -125 7 -69 -2 -125 1
-125 6 0 16 -154 -4 -200 -27 -28 -14 -105 -83 -210 -188 -169 -170 -209 -204
-270 -228 -52 -20 -761 -22 -780 -1 -3 3 -23 14 -45 25 -77 39 -127 101 -174
218 -18 44 -13 128 9 175 11 22 20 46 20 52 0 32 116 160 151 168 8 2 28 9 44
16 17 8 51 23 78 35 121 54 137 62 137 72 0 6 4 7 10 4 5 -3 40 8 77 26 108
50 236 110 256 120 41 21 53 27 77 37 14 6 43 16 65 23 22 6 49 16 60 21 22
10 1533 4 1630 -7 126 -13 214 -87 250 -212 29 -100 19 -137 -74 -277 -36 -54
-70 -106 -76 -114 -5 -9 -16 -22 -23 -30 -6 -7 -12 -17 -12 -21 0 -4 -11 -21
-25 -37 -14 -16 -25 -34 -25 -41 0 -6 -4 -13 -8 -15 -5 -2 -37 -46 -72 -98
-35 -52 -72 -104 -82 -114 -10 -11 -18 -25 -18 -32 0 -7 -4 -14 -8 -16 -13 -5
-203 -289 -218 -325 -36 -86 1 -194 84 -240 31 -18 613 -18 644 0 46 25 49 34
44 172 -5 142 -19 308 -36 425 -6 41 -13 117 -16 169 -6 91 -5 96 26 158 24
47 64 97 147 181 63 65 149 155 191 201 204 223 202 221 326 221 57 0 96 -4
96 -10 0 -5 5 -10 11 -10 6 0 17 -7 25 -15 8 -8 21 -18 27 -22 7 -5 27 -37 45
-71 31 -61 42 -125 23 -136 -5 -3 -11 -18 -14 -33 -3 -16 -11 -48 -17 -73 -6
-25 -15 -63 -20 -85 -5 -22 -14 -58 -20 -80 -21 -74 -32 -120 -37 -160 -3 -22
-8 -44 -12 -50 -4 -5 -13 -37 -20 -70 -7 -33 -17 -70 -22 -83 -5 -13 -9 -40
-9 -62 0 -21 -4 -41 -9 -44 -4 -3 -11 -20 -15 -38 -3 -18 -11 -53 -17 -78 -5
-25 -14 -65 -19 -90 -4 -25 -13 -63 -19 -85 -16 -56 -31 -122 -41 -175 -4 -25
-14 -70 -22 -100 -8 -30 -21 -82 -27 -115 -27 -130 -67 -270 -89 -304 -26 -43
-122 -131 -143 -131 -10 0 -19 -4 -19 -9 0 -9 -23 -15 -112 -30 -26 -4 -51
-10 -55 -14 -3 -4 170 -7 385 -7 l392 0 0 1125 0 1125 -2830 0 -2830 0 0
-1125z"/>
<path d="M2683 2043 c-45 -21 -79 -41 -76 -47 3 -5 1 -6 -5 -2 -6 3 -57 -16
-114 -42 -57 -27 -122 -57 -145 -67 -23 -10 -39 -23 -36 -28 3 -6 1 -7 -5 -3
-6 4 -19 3 -29 -3 -10 -5 -47 -22 -83 -38 -199 -92 -205 -96 -239 -156 -30
-53 -29 -147 1 -190 30 -42 44 -57 57 -57 6 0 11 -3 11 -8 0 -24 92 -32 386
-32 l306 1 44 30 c24 16 119 105 211 197 109 108 186 177 218 193 79 42 180
52 392 40 172 -9 184 -11 241 -40 91 -46 122 -103 122 -225 0 -75 -3 -86 -31
-132 -30 -46 -76 -94 -91 -94 -3 0 -44 -17 -90 -39 -116 -54 -196 -90 -243
-111 -22 -10 -65 -29 -95 -43 -66 -30 -142 -63 -190 -84 -19 -8 -55 -24 -80
-35 -25 -11 -54 -24 -65 -28 -11 -4 -40 -17 -63 -29 -24 -11 -50 -21 -58 -21
-8 0 -14 -4 -14 -10 0 -5 -6 -10 -13 -10 -18 0 -67 -24 -67 -32 0 -5 -7 -8
-15 -8 -15 0 -82 -34 -99 -51 -6 -5 -18 -9 -28 -9 -10 0 -18 -4 -18 -10 0 -5
-9 -10 -20 -10 -11 0 -20 -4 -20 -10 0 -5 -6 -10 -13 -10 -7 0 -19 -6 -25 -12
-7 -7 -16 -13 -20 -14 -15 -1 -101 -45 -107 -54 -4 -6 -10 -8 -15 -5 -5 3 -19
0 -32 -6 -13 -7 -31 -16 -40 -21 -25 -11 -115 -10 -123 2 -3 5 -15 10 -26 10
-10 0 -19 5 -19 10 0 6 -6 10 -13 10 -6 0 -30 17 -52 38 -22 20 -57 49 -77 64
-20 15 -42 34 -50 41 -7 7 -29 24 -48 37 -19 13 -37 27 -40 30 -8 8 -111 62
-208 109 -24 12 -52 21 -62 21 -11 0 -22 5 -25 10 -3 6 -24 10 -45 10 -21 0
-41 4 -44 8 -3 5 -58 14 -123 21 -98 10 -137 9 -228 -3 -116 -16 -187 -29
-220 -41 -82 -29 -274 -125 -335 -166 -108 -73 -256 -235 -345 -378 -5 -9 -18
-29 -29 -44 -35 -53 -116 -218 -116 -236 0 -10 9 -30 21 -45 l20 -26 2352 0
c2561 0 2405 -3 2482 56 46 35 79 107 105 229 12 55 27 120 33 145 6 25 11 61
11 82 1 20 4 35 7 33 3 -2 13 31 23 73 10 42 21 93 26 112 37 152 46 191 69
303 5 23 15 67 23 97 8 30 20 82 27 115 7 33 16 74 21 90 4 17 14 55 20 85 7
30 16 64 21 75 4 11 10 34 12 50 9 51 38 169 48 187 5 10 9 38 9 62 0 36 -5
48 -26 65 -53 42 -78 31 -183 -77 -309 -317 -396 -414 -402 -448 -6 -33 2
-174 20 -359 6 -55 15 -166 20 -247 5 -81 12 -152 16 -158 3 -5 1 -10 -4 -10
-6 0 -11 -12 -11 -27 0 -74 -64 -161 -136 -183 -26 -9 -142 -14 -344 -17 -376
-6 -408 -1 -493 77 -44 40 -61 69 -88 149 -42 125 -19 216 98 383 29 43 85
124 123 180 39 57 92 135 120 173 27 39 49 75 49 82 1 6 5 13 10 15 5 2 35 41
67 88 32 47 75 110 96 140 77 110 88 130 88 162 -1 39 -45 107 -80 125 -19 10
-211 13 -845 13 l-820 -1 -82 -36z"/>
</g>
</svg>
