<?xml version="1.0" standalone="no"?>
<!DOCTYPE svg PUBLIC "-//W3C//DTD SVG 20010904//EN"
 "http://www.w3.org/TR/2001/REC-SVG-20010904/DTD/svg10.dtd">
<svg version="1.0" xmlns="http://www.w3.org/2000/svg"
 width="99.000000pt" height="42.000000pt" viewBox="0 0 99.000000 42.000000"
 preserveAspectRatio="xMidYMid meet">

<g transform="translate(0.000000,42.000000) scale(0.100000,-0.100000)"
fill="#FFA17A" stroke="none">
<path d="M0 210 l0 -210 33 1 c17 1 24 3 14 6 -9 2 -15 9 -12 14 4 5 -1 9 -9
9 -21 0 -21 56 -1 77 8 8 13 18 10 23 -9 14 105 110 130 110 13 0 27 5 31 11
4 6 19 9 36 5 48 -10 75 2 85 37 8 30 81 97 128 117 12 5 -71 9 -212 9 l-233
1 0 -210z"/>
<path d="M688 413 c6 -2 18 -2 25 0 6 3 1 5 -13 5 -14 0 -19 -2 -12 -5z"/>
<path d="M798 404 c12 -8 22 -22 22 -30 0 -18 14 -18 30 1 7 8 18 15 25 15 7
0 15 7 19 15 4 12 -6 15 -57 15 -58 0 -60 -1 -39 -16z"/>
<path d="M950 410 c0 -6 7 -13 15 -16 18 -7 22 -94 4 -94 -6 0 -8 -8 -4 -19 7
-24 -21 -143 -48 -203 -23 -50 -45 -64 -107 -71 -19 -2 13 -5 73 -5 l107 -2 0
210 c0 203 -1 210 -20 210 -11 0 -20 -5 -20 -10z"/>
<path d="M545 370 c-44 -4 -85 -14 -111 -27 -23 -12 -44 -19 -47 -16 -4 3 -11
-7 -17 -23 -9 -23 -8 -31 5 -41 30 -22 99 -10 142 25 60 47 84 54 124 34 25
-13 34 -24 34 -42 0 -20 -11 -31 -60 -57 -33 -18 -66 -33 -73 -33 -7 0 -25 -9
-40 -20 -48 -35 -93 -35 -151 1 -41 26 -62 32 -111 33 l-60 1 -59 -60 c-33
-33 -61 -66 -63 -74 -2 -11 61 -13 391 -13 l394 0 23 29 c13 15 21 34 19 41
-6 17 35 196 46 200 13 5 11 30 -2 38 -11 7 -83 -57 -101 -90 -7 -13 -7 -21 2
-26 9 -6 11 -26 5 -74 l-7 -66 -63 0 c-35 0 -70 3 -79 6 -24 9 -19 72 9 119
14 22 25 36 25 30 0 -5 12 12 26 39 14 26 22 52 17 56 -11 11 -133 16 -218 10z"/>
<path d="M770 241 c0 -7 -4 -9 -10 -6 -5 3 -10 -2 -10 -11 0 -10 -10 -28 -22
-41 -26 -28 -19 -37 21 -28 25 5 32 13 37 41 4 22 2 40 -5 47 -8 8 -11 8 -11
-2z"/>
<path d="M128 3 c7 -3 16 -2 19 1 4 3 -2 6 -13 5 -11 0 -14 -3 -6 -6z"/>
<path d="M278 3 c7 -3 16 -2 19 1 4 3 -2 6 -13 5 -11 0 -14 -3 -6 -6z"/>
<path d="M408 3 c6 -2 18 -2 25 0 6 3 1 5 -13 5 -14 0 -19 -2 -12 -5z"/>
<path d="M558 3 c7 -3 16 -2 19 1 4 3 -2 6 -13 5 -11 0 -14 -3 -6 -6z"/>
<path d="M698 3 c7 -3 16 -2 19 1 4 3 -2 6 -13 5 -11 0 -14 -3 -6 -6z"/>
</g>
</svg>
