<?xml version="1.0" standalone="no"?>
<!DOCTYPE svg PUBLIC "-//W3C//DTD SVG 20010904//EN"
 "http://www.w3.org/TR/2001/REC-SVG-20010904/DTD/svg10.dtd">
<svg version="1.0" xmlns="http://www.w3.org/2000/svg"
 width="98.000000pt" height="35.000000pt" viewBox="0 0 98.000000 35.000000"
 preserveAspectRatio="xMidYMid meet">

<g transform="translate(0.000000,35.000000) scale(0.100000,-0.100000)"
fill="#FFA17A" stroke="none">
<path d="M0 300 l0 -51 38 41 39 40 126 0 c74 0 128 -4 132 -10 4 -6 10 -8 15
-5 13 8 24 -16 22 -47 -3 -36 25 -38 38 -4 19 51 80 69 148 45 18 -6 29 -15
26 -20 -3 -5 4 -9 15 -9 11 0 32 -10 48 -23 67 -53 63 -53 61 -11 -2 55 30 78
101 72 30 -3 57 -10 59 -16 2 -7 10 -12 17 -12 7 0 27 -16 45 -36 31 -36 31
-37 27 -125 -4 -83 -18 -126 -37 -114 -5 3 -11 1 -15 -5 -4 -6 9 -10 34 -10
l41 0 0 175 0 175 -490 0 -490 0 0 -50z"/>
<path d="M148 285 c-3 -3 -22 -6 -42 -7 -20 -1 -34 -3 -32 -6 3 -2 -2 -11 -10
-19 -9 -10 -14 -29 -12 -52 3 -36 15 -46 96 -87 6 -3 12 -17 12 -29 0 -13 5
-27 11 -30 19 -13 709 -9 722 4 6 6 11 41 10 82 -1 64 -4 74 -28 97 -31 28
-94 40 -106 20 -10 -15 18 -48 40 -48 9 0 27 -7 39 -16 19 -13 22 -24 20 -57
-3 -37 -6 -42 -28 -43 -27 -1 -100 34 -100 48 0 4 -5 8 -11 8 -15 0 -129 69
-151 90 -9 10 -33 21 -53 24 -54 10 -96 -29 -125 -116 -25 -75 -35 -81 -115
-73 -92 10 -202 101 -155 130 5 3 35 6 67 7 80 1 123 20 121 51 -2 24 -5 25
-83 26 -45 1 -84 -1 -87 -4z"/>
<path d="M320 178 c-26 -14 -47 -18 -83 -14 -30 3 -45 1 -42 -5 4 -5 11 -7 16
-4 5 4 9 2 9 -3 0 -5 21 -15 47 -21 37 -10 49 -9 58 1 10 11 38 70 32 67 -1
-1 -18 -10 -37 -21z"/>
<path d="M0 71 l0 -71 72 0 c61 0 69 2 54 13 -10 7 -18 27 -18 45 -1 26 -5 32
-24 32 -12 0 -36 12 -53 26 l-31 26 0 -71z"/>
</g>
</svg>
