<?xml version="1.0" standalone="no"?>
<!DOCTYPE svg PUBLIC "-//W3C//DTD SVG 20010904//EN"
 "http://www.w3.org/TR/2001/REC-SVG-20010904/DTD/svg10.dtd">
<svg version="1.0" xmlns="http://www.w3.org/2000/svg"
 width="85.000000pt" height="95.000000pt" viewBox="0 0 85.000000 95.000000"
 preserveAspectRatio="xMidYMid meet">

<g transform="translate(0.000000,95.000000) scale(0.100000,-0.100000)"
fill="#FFA17A" stroke="none">
<path d="M0 803 l1 -148 44 85 c49 93 65 110 107 110 32 0 53 -27 63 -83 6
-32 15 -42 59 -67 28 -17 58 -30 67 -30 15 0 50 35 129 130 19 23 37 47 39 53
2 7 19 27 37 47 28 29 39 34 74 33 46 -2 82 -21 104 -56 12 -18 50 -183 71
-303 2 -17 12 -66 20 -110 27 -137 30 -208 10 -227 -22 -22 -67 -22 -96 2 -13
10 -44 48 -69 84 -50 73 -34 68 -170 51 -98 -13 -104 -43 -24 -129 102 -111
103 -154 4 -214 -57 -34 -82 -28 -133 32 -65 77 -116 157 -128 201 -9 34 -7
44 18 93 15 31 43 73 63 95 31 34 43 40 100 49 35 6 66 12 68 13 4 5 -114 15
-258 22 -119 6 -127 8 -163 36 l-37 29 0 -301 0 -300 425 0 425 0 0 475 0 475
-425 0 -425 0 0 -147z"/>
<path d="M566 853 c-9 -16 -50 -71 -93 -123 -92 -112 -116 -123 -184 -91 -98
46 -122 70 -121 121 1 36 -2 41 -20 38 -12 -2 -26 -12 -32 -23 -6 -10 -21 -36
-34 -57 -12 -21 -24 -55 -25 -75 -2 -34 0 -37 33 -44 39 -8 144 -18 270 -24
217 -12 250 -19 250 -56 0 -28 -43 -42 -195 -64 -22 -3 -48 -8 -58 -11 -26 -8
-107 -122 -107 -150 0 -26 94 -176 133 -212 17 -16 32 -22 45 -18 26 8 72 45
72 56 0 5 -29 43 -65 85 -72 86 -83 111 -65 156 18 42 50 55 163 69 l97 11 25
-28 c13 -15 44 -56 67 -90 40 -59 60 -74 72 -55 6 11 -73 473 -93 541 -16 51
-38 71 -82 71 -32 0 -41 -5 -53 -27z"/>
</g>
</svg>
