<?xml version="1.0" standalone="no"?>
<!DOCTYPE svg PUBLIC "-//W3C//DTD SVG 20010904//EN"
 "http://www.w3.org/TR/2001/REC-SVG-20010904/DTD/svg10.dtd">
<svg version="1.0" xmlns="http://www.w3.org/2000/svg"
 width="96.000000pt" height="67.000000pt" viewBox="0 0 96.000000 67.000000"
 preserveAspectRatio="xMidYMid meet">

<g transform="translate(0.000000,67.000000) scale(0.100000,-0.100000)" fill="#FFA17A">
<path d="M0 559 l0 -110 24 27 c18 21 32 28 60 28 l37 0 -31 24 c-24 19 -30
31 -30 63 0 34 4 41 28 50 22 9 35 7 72 -12 25 -13 47 -26 50 -29 3 -3 23 -17
45 -31 43 -28 245 -196 257 -213 5 -7 22 -6 53 2 43 11 53 10 154 -24 60 -19
117 -44 126 -54 16 -18 17 -41 3 -113 -2 -14 10 -22 52 -37 30 -11 56 -19 58
-20 1 0 2 126 2 280 l0 280 -480 0 -480 0 0 -111z"/>
<path d="M110 587 c0 -14 0 -14 107 -99 39 -32 81 -71 92 -87 23 -32 28 -80 9
-99 -25 -25 -52 -10 -133 74 -65 67 -88 85 -106 82 -40 -5 -29 -55 21 -95 15
-12 45 -50 66 -83 24 -37 46 -60 57 -60 31 0 54 -18 68 -52 16 -39 64 -84 104
-97 54 -18 87 -21 301 -28 182 -5 211 -4 216 9 9 23 -3 32 -57 46 -70 18 -83
33 -66 75 30 73 26 78 -83 116 -80 28 -102 32 -117 23 -10 -7 -32 -12 -48 -12
-28 0 -50 14 -153 102 -14 13 -37 31 -50 41 -12 10 -57 44 -98 76 -102 79
-130 93 -130 68z"/>
<path d="M1 213 l-1 -213 263 1 c199 1 246 4 194 10 -37 5 -84 18 -105 28 -39
20 -91 71 -111 108 -6 13 -24 26 -39 29 -35 9 -62 32 -62 55 0 9 -4 19 -8 21
-19 7 -121 131 -125 151 -2 12 -5 -74 -6 -190z"/>
<path d="M255 379 c-10 -15 3 -25 16 -12 7 7 7 13 1 17 -6 3 -14 1 -17 -5z"/>
</g>
</svg>
