<?xml version="1.0" standalone="no"?>
<!DOCTYPE svg PUBLIC "-//W3C//DTD SVG 20010904//EN"
 "http://www.w3.org/TR/2001/REC-SVG-20010904/DTD/svg10.dtd">
<svg version="1.0" xmlns="http://www.w3.org/2000/svg"
 width="100.000000pt" height="65.000000pt" viewBox="0 0 100.000000 65.000000"
 preserveAspectRatio="xMidYMid meet">

<g transform="translate(0.000000,65.000000) scale(0.100000,-0.100000)"
fill="#FFA17A" stroke="none">
<path d="M0 519 c0 -117 2 -129 15 -115 21 21 78 30 103 17 10 -5 25 -24 32
-41 l13 -32 146 7 c80 4 164 13 186 20 22 7 60 18 85 25 l45 12 -110 27 c-122
30 -139 38 -173 74 -27 29 -33 86 -13 111 18 22 81 20 139 -3 389 -156 371
-146 454 -256 37 -49 69 -99 71 -110 2 -11 5 73 6 188 l1 207 -500 0 -500 0 0
-131z"/>
<path d="M360 585 c0 -17 26 -54 44 -62 11 -6 70 -22 130 -36 60 -15 117 -34
128 -43 41 -38 12 -74 -77 -94 -27 -7 -57 -14 -65 -17 -45 -17 -186 -33 -296
-33 l-91 0 -16 40 c-10 27 -21 40 -35 40 -34 0 -31 -12 20 -74 78 -94 104
-104 155 -56 40 38 54 38 98 -1 l36 -32 52 26 c29 14 102 46 162 72 61 25 119
50 130 55 66 31 72 31 98 -3 38 -51 87 -154 87 -184 0 -15 -14 -46 -30 -67
-29 -39 -38 -66 -22 -66 16 0 77 51 84 69 16 45 -7 127 -58 202 -57 87 -65 94
-124 121 -94 43 -129 58 -136 58 -4 0 -25 9 -48 19 -107 49 -166 71 -195 71
-17 0 -31 -2 -31 -5z"/>
<path d="M0 178 l0 -178 415 0 c408 0 416 0 405 19 -18 35 -11 77 20 116 30
37 37 64 23 79 -5 4 -8 11 -8 14 0 4 -14 31 -30 59 -30 52 -42 61 -61 44 -5
-5 -49 -26 -99 -46 -49 -21 -110 -46 -135 -57 -123 -55 -159 -59 -197 -22
l-25 25 -27 -25 c-21 -21 -37 -26 -75 -26 -44 0 -51 4 -100 53 -29 28 -64 68
-79 87 l-27 35 0 -177z"/>
<path d="M987 77 c-3 -8 -27 -28 -53 -45 l-47 -32 56 0 57 0 0 45 c0 46 -4 55
-13 32z"/>
</g>
</svg>
