<?xml version="1.0" standalone="no"?>
<!DOCTYPE svg PUBLIC "-//W3C//DTD SVG 20010904//EN"
 "http://www.w3.org/TR/2001/REC-SVG-20010904/DTD/svg10.dtd">
<svg version="1.0" xmlns="http://www.w3.org/2000/svg"
 width="97.000000pt" height="73.000000pt" viewBox="0 0 97.000000 73.000000"
 preserveAspectRatio="xMidYMid meet">

<g transform="translate(0.000000,73.000000) scale(0.100000,-0.100000)"
fill="#FFA17A" stroke="none">
<path d="M1 658 c1 -67 2 -70 12 -39 6 18 25 49 42 67 39 41 69 43 213 15 110
-21 131 -37 134 -99 1 -30 6 -42 17 -42 8 0 53 -12 100 -27 106 -35 156 -78
147 -126 -3 -17 -13 -39 -22 -48 -14 -16 -13 -19 13 -35 15 -10 30 -21 33 -24
8 -9 168 -80 180 -80 5 0 10 -4 10 -10 0 -5 7 -10 15 -10 9 0 27 -11 41 -25
14 -14 27 -25 29 -25 3 0 5 131 5 290 l0 290 -485 0 -485 0 1 -72z"/>
<path d="M112 664 c-15 -7 -36 -45 -55 -103 -16 -45 -8 -68 28 -75 34 -7 108
-36 130 -50 17 -11 20 -23 19 -70 -2 -56 -2 -56 52 -106 75 -68 106 -88 129
-84 91 16 93 16 114 -5 12 -12 24 -21 28 -21 3 0 29 -17 57 -38 96 -72 116
-77 143 -31 17 29 20 31 63 24 85 -12 85 -12 85 13 0 26 -15 36 -118 78 -38
15 -105 49 -150 76 -44 26 -86 48 -94 48 -7 0 -13 4 -13 9 0 7 -52 34 -70 36
-3 1 -41 18 -85 40 -44 21 -82 39 -85 40 -29 8 -178 91 -174 96 2 4 0 10 -6
14 -16 10 -11 51 8 68 31 28 57 20 133 -40 39 -32 74 -56 76 -53 2 3 9 -3 14
-12 6 -10 15 -18 20 -18 6 0 22 -9 36 -20 14 -11 41 -20 60 -20 39 0 73 -15
73 -33 0 -11 43 -37 62 -37 4 0 8 16 8 35 0 27 -4 35 -18 35 -20 0 -180 52
-209 68 -10 6 -22 31 -28 58 -9 44 -13 49 -45 56 -98 21 -170 30 -188 22z"/>
<path d="M140 580 c0 -5 3 -9 8 -8 4 1 23 -6 42 -15 l35 -18 -30 25 c-31 27
-55 33 -55 16z"/>
<path d="M1 554 c0 -11 3 -14 6 -6 3 7 2 16 -1 19 -3 4 -6 -2 -5 -13z"/>
<path d="M0 245 l0 -245 337 0 337 0 -79 55 c-44 30 -75 55 -70 56 6 0 -1 5
-15 11 -14 6 -29 10 -35 9 -67 -18 -100 -12 -140 27 -17 15 -52 45 -78 67 -59
47 -71 68 -68 122 1 35 -2 45 -22 58 -14 9 -29 14 -34 13 -12 -4 -93 33 -93
43 0 5 -9 13 -20 19 -20 11 -20 8 -20 -235z"/>
<path d="M941 60 c-25 -21 -67 -25 -116 -11 -26 7 -34 4 -56 -20 l-27 -29 114
0 114 0 0 40 c0 22 -1 40 -2 40 -2 -1 -14 -10 -27 -20z"/>
</g>
</svg>
