<?xml version="1.0" standalone="no"?>
<!DOCTYPE svg PUBLIC "-//W3C//DTD SVG 20010904//EN"
 "http://www.w3.org/TR/2001/REC-SVG-20010904/DTD/svg10.dtd">
<svg version="1.0" xmlns="http://www.w3.org/2000/svg"
 width="107.000000pt" height="58.000000pt" viewBox="0 0 107.000000 58.000000"
 preserveAspectRatio="xMidYMid meet">

<g transform="translate(0.000000,58.000000) scale(0.100000,-0.100000)"
fill="#FFA17A" stroke="none">
<path d="M0 418 l0 -162 28 27 c15 15 38 27 49 27 20 0 21 4 17 58 -7 76 8
100 75 125 47 18 58 19 95 8 73 -22 107 -18 163 23 29 20 64 39 80 42 15 3 30
7 32 10 2 2 -118 4 -267 4 l-272 0 0 -162z"/>
<path d="M664 559 c20 -16 26 -29 26 -58 l0 -38 48 5 c40 3 59 -1 110 -27 34
-17 62 -35 62 -40 0 -5 11 -12 25 -15 13 -3 43 -25 65 -47 34 -35 40 -47 40
-84 0 -32 -7 -51 -24 -73 -22 -25 -31 -28 -71 -26 -37 2 -55 11 -96 44 -27 23
-54 51 -60 61 -14 27 -40 24 -112 -13 -34 -18 -64 -32 -67 -33 -3 0 -23 -12
-45 -26 -51 -33 -126 -72 -144 -75 -8 -2 -17 -7 -20 -12 -11 -16 -98 -62 -104
-55 -4 3 -7 1 -7 -5 0 -7 -3 -11 -8 -10 -4 1 -20 -5 -37 -15 -28 -15 -7 -16
398 -17 l427 0 0 290 0 290 -216 0 -217 0 27 -21z"/>
<path d="M540 532 c0 -5 -12 -14 -26 -21 -14 -6 -42 -24 -61 -38 -20 -15 -43
-28 -52 -30 -36 -6 -89 -6 -148 2 -51 6 -67 5 -88 -9 -23 -15 -26 -23 -22 -54
3 -20 11 -51 18 -68 19 -49 8 -64 -50 -64 -66 0 -78 -19 -59 -93 18 -73 53
-108 113 -115 35 -3 46 -2 41 7 -4 6 -3 11 2 11 6 0 39 16 74 36 56 32 76 41
101 43 4 1 15 9 25 19 22 22 110 72 136 78 11 2 22 8 25 13 12 18 137 79 174
84 32 5 43 2 60 -16 62 -64 127 -108 154 -105 23 2 29 8 31 35 3 26 -3 36 -34
60 -20 15 -45 36 -55 46 -11 9 -24 17 -29 17 -6 0 -33 12 -61 26 -40 22 -57
25 -92 20 -23 -4 -49 -14 -58 -22 -9 -8 -27 -17 -39 -19 -13 -3 -26 -8 -29
-12 -18 -24 -61 -5 -61 28 0 17 56 69 76 69 5 0 17 12 27 25 16 22 16 26 3 31
-9 3 -27 7 -41 8 -14 0 -25 4 -25 9 0 4 -7 7 -15 7 -8 0 -15 -4 -15 -8z"/>
<path d="M1 73 l-1 -73 44 0 44 0 -25 28 c-14 15 -34 47 -44 72 l-18 45 0 -72z"/>
</g>
</svg>
