<?xml version="1.0" standalone="no"?>
<!DOCTYPE svg PUBLIC "-//W3C//DTD SVG 20010904//EN"
 "http://www.w3.org/TR/2001/REC-SVG-20010904/DTD/svg10.dtd">
<svg version="1.0" xmlns="http://www.w3.org/2000/svg"
 width="97.000000pt" height="73.000000pt" viewBox="0 0 97.000000 73.000000"
 preserveAspectRatio="xMidYMid meet">

<g transform="translate(0.000000,73.000000) scale(0.100000,-0.100000)"
fill="#FFA17A" stroke="none">
<path d="M0 658 l0 -72 21 23 c26 27 78 51 113 51 24 0 85 -58 87 -83 1 -21
18 27 18 53 1 14 15 42 32 63 l30 37 -150 0 -151 0 0 -72z"/>
<path d="M379 713 c21 -18 63 -106 55 -117 -2 -3 -1 -4 2 -1 4 2 20 -12 36
-33 28 -35 30 -41 24 -99 -6 -57 -5 -63 12 -63 18 0 75 51 73 67 -2 18 11 43
20 38 8 -6 13 8 10 27 -3 20 63 137 82 145 38 17 155 8 178 -13 53 -48 94
-171 61 -182 -7 -2 -12 -8 -12 -14 0 -6 -22 -38 -50 -73 -54 -68 -58 -80 -34
-89 8 -3 13 -9 11 -13 -3 -5 11 -30 29 -58 19 -27 34 -45 34 -40 0 6 14 -12
30 -40 l30 -50 0 313 0 312 -306 0 c-293 0 -305 -1 -285 -17z"/>
<path d="M300 646 c-5 -14 -14 -61 -19 -104 -11 -85 -25 -132 -40 -132 -8 0
-61 99 -61 114 0 2 -5 17 -12 33 -6 15 -12 33 -12 38 -1 11 -36 8 -72 -5 -15
-6 -23 -19 -25 -42 -5 -41 0 -70 11 -63 4 3 7 -1 7 -8 -1 -6 14 -43 33 -82 18
-38 33 -75 32 -80 -1 -6 17 -19 41 -29 93 -40 103 -80 30 -126 -27 -16 -52
-30 -58 -30 -13 0 -36 -50 -29 -61 3 -5 12 -9 20 -9 8 0 14 -3 14 -8 0 -4 70
-7 155 -7 85 0 146 3 137 7 -11 4 -6 7 16 7 17 1 32 -2 32 -6 0 -9 248 -8 257
1 3 3 11 2 17 -3 6 -5 38 -6 71 -3 52 6 60 10 63 29 2 13 -6 36 -17 52 -12 16
-21 34 -21 40 0 6 -3 11 -8 11 -15 0 -93 139 -90 161 2 11 24 44 50 72 26 28
45 53 42 56 -2 2 5 15 17 27 23 25 19 38 -27 101 -25 34 -75 51 -112 39 -22
-7 -70 -72 -76 -102 -2 -11 -14 -38 -26 -59 -56 -100 -89 -125 -165 -125 l-46
0 6 63 c3 34 8 69 10 77 3 8 -9 30 -26 48 -18 19 -39 55 -48 80 -20 57 -55 70
-71 28z"/>
<path d="M2 560 c0 -14 2 -19 5 -12 2 6 2 18 0 25 -3 6 -5 1 -5 -13z"/>
<path d="M0 263 l0 -263 73 1 c39 1 62 4 50 6 -30 6 -53 40 -53 78 0 32 40 76
104 116 l28 17 -33 18 c-19 9 -44 27 -57 39 -21 21 -82 154 -82 180 0 7 -7 26
-15 41 -14 26 -15 5 -15 -233z"/>
<path d="M956 35 c-3 -9 -16 -20 -28 -25 -21 -8 -20 -9 10 -9 28 -1 32 2 32
24 0 28 -5 32 -14 10z"/>
</g>
</svg>
