<?xml version="1.0" standalone="no"?>
<!DOCTYPE svg PUBLIC "-//W3C//DTD SVG 20010904//EN"
 "http://www.w3.org/TR/2001/REC-SVG-20010904/DTD/svg10.dtd">
<svg version="1.0" xmlns="http://www.w3.org/2000/svg"
 width="550.000000pt" height="351.000000pt" viewBox="0 0 550.000000 351.000000"
 preserveAspectRatio="xMidYMid meet">

<g transform="translate(0.000000,351.000000) scale(0.100000,-0.100000)"
fill="#FFA17A" stroke="none">
<path d="M0 1755 l0 -1755 1125 0 1125 0 -31 63 c-45 89 -126 211 -244 367
-306 405 -280 360 -700 1199 l-383 766 -214 245 c-512 587 -631 726 -639 749
-13 34 -2 59 34 77 26 14 91 18 389 26 l358 10 237 -46 c508 -98 945 -175 958
-169 8 3 15 1 15 -5 0 -5 17 -10 38 -10 20 0 161 -14 312 -31 151 -17 448 -44
660 -61 212 -17 399 -35 416 -41 64 -20 102 -95 83 -163 -25 -90 -177 -267
-306 -356 -135 -94 -308 -149 -468 -150 -145 0 -405 39 -635 96 -82 20 -133
26 -230 27 -117 1 -129 0 -181 -26 -77 -37 -160 -126 -187 -200 -26 -68 -29
-165 -7 -226 23 -65 316 -611 328 -611 6 0 8 -3 4 -6 -11 -12 31 -79 68 -107
86 -68 192 -96 289 -78 103 19 135 43 319 235 167 174 175 181 262 222 164 78
92 74 1288 74 593 0 1067 -4 1067 -9 0 -5 11 -12 25 -15 37 -9 99 -69 118
-113 9 -21 57 -193 107 -383 67 -252 90 -353 85 -377 -12 -65 -51 -93 -272
-198 l-208 -99 -740 -188 c-407 -104 -967 -245 -1245 -314 -278 -68 -512 -127
-520 -130 -8 -4 -26 -8 -40 -10 -14 -2 -47 -10 -75 -18 -44 -12 153 -14 1533
-15 l1582 -1 0 1755 0 1755 -2750 0 -2750 0 0 -1755z m1898 -300 c-3 -3 -9 2
-12 12 -6 14 -5 15 5 6 7 -7 10 -15 7 -18z"/>
<path d="M545 3380 c-88 -4 -204 -8 -258 -9 -64 -1 -96 -5 -92 -11 4 -6 11 -8
16 -4 5 3 8 1 7 -5 -2 -5 6 -17 17 -26 11 -9 14 -13 6 -9 -11 6 302 -357 669
-777 63 -71 91 -124 430 -797 200 -397 367 -722 372 -722 5 0 6 -5 3 -10 -3
-6 -1 -10 5 -10 6 0 9 -4 6 -9 -3 -5 1 -12 10 -15 9 -4 14 -13 10 -22 -4 -10
-2 -13 6 -8 8 5 9 2 5 -10 -4 -10 -3 -15 3 -11 5 3 14 -5 21 -17 12 -22 11
-22 -7 -8 -10 8 -2 -7 17 -35 20 -27 69 -97 109 -155 40 -58 105 -145 143
-193 85 -109 229 -319 253 -370 10 -20 22 -37 26 -37 8 0 1022 255 2318 582
179 45 328 86 331 91 4 5 12 6 18 3 6 -4 11 -3 11 2 0 5 6 9 13 9 20 0 317
145 317 155 0 5 5 6 10 3 6 -3 10 -1 10 4 0 6 3 10 8 10 19 -3 32 2 32 14 0
28 -174 666 -181 662 -4 -3 -5 4 -2 15 3 12 -2 29 -13 41 -47 52 6 50 -1141
44 -588 -3 -1079 -7 -1092 -10 -60 -11 -191 -67 -191 -81 0 -3 5 -2 12 2 7 5
8 3 4 -5 -5 -7 -15 -10 -24 -6 -9 3 -14 4 -12 1 7 -6 -320 -340 -354 -360 -57
-35 -167 -66 -237 -66 -115 0 -262 62 -336 142 -29 31 -371 669 -395 737 -38
107 -30 249 18 344 51 98 164 200 264 238 107 40 284 34 489 -16 187 -46 348
-72 496 -81 244 -14 454 70 620 247 67 71 118 146 109 161 -4 7 -3 8 4 4 8 -5
12 0 12 14 0 11 -6 23 -12 25 -7 3 -184 18 -393 35 -838 67 -1101 103 -1991
275 -130 26 -254 44 -285 43 -29 -1 -126 -5 -214 -8z m4655 -1715 c0 -5 -5 -3
-10 5 -5 8 -10 20 -10 25 0 6 5 3 10 -5 5 -8 10 -19 10 -25z"/>
<path d="M3193 1753 c75 -2 199 -2 275 0 75 1 13 3 -138 3 -151 0 -213 -2
-137 -3z"/>
</g>
</svg>
