<?xml version="1.0" standalone="no"?>
<!DOCTYPE svg PUBLIC "-//W3C//DTD SVG 20010904//EN"
 "http://www.w3.org/TR/2001/REC-SVG-20010904/DTD/svg10.dtd">
<svg version="1.0" xmlns="http://www.w3.org/2000/svg"
 width="104.000000pt" height="60.000000pt" viewBox="0 0 104.000000 60.000000"
 preserveAspectRatio="xMidYMid meet">

<g transform="translate(0.000000,60.000000) scale(0.100000,-0.100000)"
fill="#FFA17A" stroke="none">
<path d="M0 463 c1 -124 2 -136 15 -119 8 11 15 27 16 35 1 9 2 23 3 31 2 8 3
23 4 33 1 10 7 15 12 12 6 -4 10 6 10 23 0 35 37 92 70 109 22 11 16 13 -52
13 l-78 0 0 -137z"/>
<path d="M181 596 c2 -2 25 -6 51 -9 57 -6 177 -44 200 -64 9 -8 22 -13 30
-12 19 4 118 -23 118 -33 0 -4 9 -8 20 -8 11 0 20 4 20 8 0 9 62 29 90 30 8 1
33 4 55 8 44 7 54 1 136 -77 21 -20 41 -33 45 -30 3 3 4 1 3 -4 -2 -6 9 -32
25 -58 21 -35 29 -64 32 -108 3 -59 2 -62 -34 -98 -43 -43 -127 -102 -134 -95
-3 2 -25 -7 -49 -21 l-44 -25 148 0 147 0 0 300 0 300 -432 0 c-237 0 -429 -2
-427 -4z"/>
<path d="M137 521 c-27 -31 -56 -93 -55 -121 1 -8 -6 -39 -15 -67 -9 -29 -12
-55 -8 -57 5 -3 23 -1 42 5 19 5 63 14 98 19 35 5 67 13 70 18 8 11 120 42
154 42 15 0 27 4 27 8 0 9 126 44 169 47 47 3 51 5 51 19 0 11 -8 11 -40 3
-45 -12 -118 -1 -186 28 -21 10 -49 19 -62 21 -13 1 -42 13 -65 25 -23 12 -51
23 -62 24 -11 2 -36 7 -55 10 -31 6 -38 3 -63 -24z"/>
<path d="M745 453 c39 -6 55 -20 55 -48 0 -22 -22 -47 -52 -58 -13 -4 -15 -14
-11 -45 4 -28 1 -43 -12 -55 -16 -16 -19 -15 -56 14 -39 30 -41 31 -84 18 -45
-13 -62 -33 -47 -53 5 -6 17 -41 27 -77 19 -65 20 -67 67 -84 27 -9 62 -15 78
-13 17 3 30 1 30 -3 0 -5 7 -6 15 -2 9 3 14 8 11 11 -7 7 132 92 151 92 8 0
17 9 20 20 3 11 9 17 14 15 17 -11 -2 88 -28 138 -15 28 -26 58 -25 65 2 6 -7
16 -20 21 -13 6 -36 19 -53 30 -19 14 -44 20 -70 19 -34 -1 -36 -2 -10 -5z"/>
<path d="M670 381 c0 -10 -39 -21 -95 -26 -22 -2 -41 -9 -43 -15 -2 -5 -18
-10 -36 -10 -18 0 -36 -4 -41 -9 -13 -12 -158 -51 -189 -51 -14 0 -26 -4 -28
-10 -1 -5 -25 -11 -53 -14 -27 -2 -51 -9 -53 -15 -6 -17 -98 -13 -116 5 -15
14 -16 4 -16 -110 l0 -126 313 0 c234 1 307 3 292 12 -60 33 -115 135 -115
214 0 31 7 44 43 76 40 38 44 40 100 36 40 -3 57 -1 57 8 0 6 7 15 16 18 8 3
12 10 9 16 -8 12 -45 13 -45 1z"/>
</g>
</svg>
