<?xml version="1.0" standalone="no"?>
<!DOCTYPE svg PUBLIC "-//W3C//DTD SVG 20010904//EN"
 "http://www.w3.org/TR/2001/REC-SVG-20010904/DTD/svg10.dtd">
<svg version="1.0" xmlns="http://www.w3.org/2000/svg"
 width="92.000000pt" height="79.000000pt" viewBox="0 0 92.000000 79.000000"
 preserveAspectRatio="xMidYMid meet">

<g transform="translate(0.000000,79.000000) scale(0.100000,-0.100000)"
fill="#FFA17A" stroke="none">
<path d="M0 395 l0 -395 238 1 c218 0 235 1 215 16 -13 8 -23 21 -24 27 -1 6
-25 33 -54 59 l-53 48 -46 -15 c-26 -9 -56 -16 -67 -16 -50 0 -129 70 -129
115 0 53 63 72 255 77 33 0 69 4 80 8 11 4 -62 8 -163 9 -112 1 -192 6 -207
13 -44 20 -48 94 -7 114 28 14 50 34 36 34 -15 0 -7 99 10 125 23 35 91 70
175 90 41 10 97 26 125 37 61 22 119 23 136 3 7 -8 9 -15 5 -15 -4 0 -3 -6 3
-13 6 -7 11 -39 12 -72 4 -96 9 -115 38 -126 21 -8 31 -5 63 21 26 20 49 30
73 30 29 0 42 -9 91 -62 32 -35 71 -83 86 -107 l29 -45 0 217 0 217 -460 0
-460 0 0 -395z"/>
<path d="M390 693 c-41 -13 -103 -30 -138 -38 -36 -8 -78 -25 -98 -40 -35 -26
-36 -29 -30 -79 14 -128 15 -121 -26 -121 -43 0 -54 -8 -34 -24 9 -8 80 -13
207 -16 447 -11 498 -15 505 -37 11 -37 11 -37 -356 -64 -124 -9 -238 -19
-255 -23 -42 -10 -43 -36 -3 -61 35 -22 86 -23 125 -2 40 22 57 12 132 -68 40
-44 79 -80 86 -80 15 0 43 64 47 107 2 24 -4 36 -25 53 -29 23 -35 44 -15 56
7 4 85 7 174 6 134 -2 163 0 174 13 7 8 9 15 6 15 -4 0 -2 9 4 19 8 16 2 29
-31 72 -23 28 -36 48 -30 44 7 -4 -9 16 -36 44 -27 28 -57 51 -67 51 -9 0 -32
-11 -49 -24 -46 -34 -71 -39 -107 -21 -41 21 -64 75 -56 132 3 26 1 45 -5 49
-8 4 -7 9 1 14 10 6 8 13 -6 28 -19 20 -19 20 -94 -5z"/>
<path d="M905 267 c-10 -40 -36 -47 -183 -48 l-139 -1 14 -30 c23 -45 -3 -142
-46 -175 -13 -10 23 -12 177 -13 l192 0 0 145 c0 141 -4 169 -15 122z"/>
</g>
</svg>
