<?xml version="1.0" standalone="no"?>
<!DOCTYPE svg PUBLIC "-//W3C//DTD SVG 20010904//EN"
 "http://www.w3.org/TR/2001/REC-SVG-20010904/DTD/svg10.dtd">
<svg version="1.0" xmlns="http://www.w3.org/2000/svg"
 width="61.000000pt" height="97.000000pt" viewBox="0 0 61.000000 97.000000"
 preserveAspectRatio="xMidYMid meet">

<g transform="translate(0.000000,97.000000) scale(0.100000,-0.100000)"
fill="#FFA17A" stroke="none">
<path d="M0 618 l0 -353 41 65 c23 36 44 67 48 70 3 3 15 22 26 43 30 61 61
80 117 74 45 -6 51 -4 95 35 27 23 48 45 48 50 0 11 -156 148 -167 148 -5 0
-8 -6 -8 -13 0 -19 -30 -44 -62 -52 -51 -13 -110 71 -77 108 6 7 20 30 32 52
43 77 143 115 302 115 51 0 76 -5 92 -18 31 -23 59 -107 57 -170 0 -29 3 -52
8 -52 4 0 8 -6 8 -14 0 -8 10 -31 22 -52 18 -31 20 -40 10 -68 -13 -35 -6
-100 9 -90 5 3 9 111 9 240 l0 234 -305 0 -305 0 0 -352z"/>
<path d="M350 909 c-36 -4 -90 -13 -121 -19 -53 -11 -58 -15 -88 -65 -33 -53
-37 -85 -14 -92 7 -3 15 7 19 21 15 63 67 70 120 17 16 -17 32 -31 35 -31 14
0 178 -168 184 -188 15 -49 -47 -73 -66 -25 l-10 26 -39 -38 c-37 -36 -45 -39
-105 -43 -62 -4 -67 -6 -92 -41 -15 -20 -32 -41 -37 -46 -13 -12 -59 -101 -57
-110 1 -3 -8 -14 -20 -24 l-22 -18 23 -26 c19 -22 30 -26 55 -21 28 5 36 0 95
-65 35 -39 72 -71 81 -71 19 0 40 23 61 65 8 17 40 82 71 145 31 63 57 120 57
127 0 6 16 29 36 50 27 28 33 42 26 53 -18 29 -24 78 -12 100 9 17 8 26 -3 44
-16 24 -34 104 -40 184 -5 59 -29 103 -55 101 -9 -1 -46 -5 -82 -10z"/>
<path d="M600 456 c0 -14 -10 -30 -25 -40 -14 -9 -34 -35 -46 -59 -12 -23 -28
-50 -37 -60 -8 -9 -12 -20 -9 -23 7 -7 -57 -140 -80 -166 -8 -9 -12 -21 -9
-26 3 -5 -9 -25 -25 -45 l-30 -37 135 0 136 0 0 240 c0 132 -2 240 -5 240 -3
0 -5 -11 -5 -24z"/>
<path d="M0 113 l0 -113 122 0 121 0 -24 27 c-13 15 -28 31 -34 35 -6 4 -6 8
-1 8 6 0 -3 13 -18 29 -20 21 -36 29 -59 28 -37 -2 -74 25 -93 68 -12 27 -13
20 -14 -82z"/>
</g>
</svg>
